<?xml version="1.0" encoding="UTF-8" standalone="no"?>
<svg
   xmlns:dc="http://purl.org/dc/elements/1.1/"
   xmlns:cc="http://creativecommons.org/ns#"
   xmlns:rdf="http://www.w3.org/1999/02/22-rdf-syntax-ns#"
   xmlns:svg="http://www.w3.org/2000/svg"
   xmlns="http://www.w3.org/2000/svg"
   xmlns:sodipodi="http://sodipodi.sourceforge.net/DTD/sodipodi-0.dtd"
   xmlns:inkscape="http://www.inkscape.org/namespaces/inkscape"
   viewBox="0 0 40 40"
   version="1.1"
   id="svg4"
   sodipodi:docname="email.svg"
   width="40"
   height="40"
   inkscape:version="0.92.3 (2405546, 2018-03-11)">
  <metadata
     id="metadata10">
    <rdf:RDF>
      <cc:Work
         rdf:about="">
        <dc:format>image/svg+xml</dc:format>
        <dc:type
           rdf:resource="http://purl.org/dc/dcmitype/StillImage" />
        <dc:title></dc:title>
      </cc:Work>
    </rdf:RDF>
  </metadata>
  <defs
     id="defs8" />
  <sodipodi:namedview
     pagecolor="#ffffff"
     bordercolor="#666666"
     borderopacity="1"
     objecttolerance="10"
     gridtolerance="10"
     guidetolerance="10"
     inkscape:pageopacity="0"
     inkscape:pageshadow="2"
     inkscape:window-width="1600"
     inkscape:window-height="845"
     id="namedview6"
     showgrid="false"
     inkscape:zoom="5.2149125"
     inkscape:cx="68.146526"
     inkscape:cy="2.9579672"
     inkscape:window-x="0"
     inkscape:window-y="27"
     inkscape:window-maximized="1"
     inkscape:current-layer="svg4" />
  <path
     d="m 39.99999,36.249999 c 0,2.0711 -1.6789,3.75 -3.74999,3.75 H 3.75 c -2.07109,0 -3.74999,-1.6789 -3.74999,-3.75 v -20.56843 a 3.7499996,3.7499996 0 0 1 1.43648,-2.95125 C 3.38282,11.204619 4.99125,9.9674286 14.26461,3.2372786 15.57906,2.2789186 18.18727,-0.02709136 20,2.4864227e-4 21.81234,-0.02745136 24.42156,2.2793086 25.73539,3.2371986 c 9.27242,6.72945 10.88304,7.9683604 12.82812,9.4931204 a 3.7499996,3.7499996 0 0 1 1.43648,2.95125 z m -5.13015,-15.35976 c -0.20024,-0.29125 -0.60156,-0.35898 -0.88586,-0.14898 -1.78476,1.3182 -4.33297,3.18008 -8.24859,6.02179 -1.31445,0.95828 -3.92266,3.26414 -5.73539,3.23672 -1.81336,0.0269 -4.41867,-2.2768 -5.73539,-3.23672 -3.91515,-2.8414 -6.46359,-4.70343 -8.24859,-6.02179 -0.2843,-0.21 -0.68562,-0.14227 -0.88586,0.14898 l -0.70875,1.03094 a 0.62484368,0.62484368 0 0 0 0.14367,0.8568 c 1.78805,1.32023 4.33235,3.1789 8.2268,6.00531 1.5839,1.15476 4.41593,3.73539 7.20812,3.71664 2.79094,0.0189 5.62195,-2.56024 7.20804,-3.71664 3.89453,-2.82649 6.43891,-4.68516 8.2268,-6.00531 a 0.62484368,0.62484368 0 0 0 0.14367,-0.8568 z"
     id="path2"
     inkscape:connector-curvature="0"
     style="stroke-width:0.07812498" />
</svg>
