<?xml version="1.0" encoding="UTF-8" standalone="no"?>
<svg
   xmlns:dc="http://purl.org/dc/elements/1.1/"
   xmlns:cc="http://creativecommons.org/ns#"
   xmlns:rdf="http://www.w3.org/1999/02/22-rdf-syntax-ns#"
   xmlns:svg="http://www.w3.org/2000/svg"
   xmlns="http://www.w3.org/2000/svg"
   xmlns:sodipodi="http://sodipodi.sourceforge.net/DTD/sodipodi-0.dtd"
   xmlns:inkscape="http://www.inkscape.org/namespaces/inkscape"
   viewBox="0 0 42 40"
   version="1.1"
   id="svg4"
   sodipodi:docname="github.svg"
   width="42"
   height="40"
   inkscape:version="0.92.3 (2405546, 2018-03-11)">
  <metadata
     id="metadata10">
    <rdf:RDF>
      <cc:Work
         rdf:about="">
        <dc:format>image/svg+xml</dc:format>
        <dc:type
           rdf:resource="http://purl.org/dc/dcmitype/StillImage" />
        <dc:title></dc:title>
      </cc:Work>
    </rdf:RDF>
  </metadata>
  <defs
     id="defs8" />
  <sodipodi:namedview
     pagecolor="#ffffff"
     bordercolor="#666666"
     borderopacity="1"
     objecttolerance="10"
     gridtolerance="10"
     guidetolerance="10"
     inkscape:pageopacity="0"
     inkscape:pageshadow="2"
     inkscape:window-width="1600"
     inkscape:window-height="845"
     id="namedview6"
     showgrid="false"
     inkscape:zoom="0.4609375"
     inkscape:cx="-9.0847458"
     inkscape:cy="256"
     inkscape:window-x="0"
     inkscape:window-y="27"
     inkscape:window-maximized="1"
     inkscape:current-layer="svg4" />
  <path
     d="m 14.20936,32.20794 c 0,0.16542 -0.19024,0.29776 -0.4301,0.29776 -0.27295,0.0248 -0.46319,-0.10752 -0.46319,-0.29776 0,-0.16542 0.19024,-0.29776 0.4301,-0.29776 0.24814,-0.0248 0.46319,0.10752 0.46319,0.29776 z m -2.57234,-0.3722 c -0.0579,0.16542 0.10753,0.35566 0.35566,0.40528 0.21505,0.0827 0.46319,0 0.51282,-0.16542 0.0496,-0.16542 -0.10753,-0.35566 -0.35566,-0.4301 -0.21505,-0.0579 -0.45492,0.0248 -0.51282,0.19024 z m 3.65586,-0.14061 c -0.23986,0.0579 -0.40529,0.21505 -0.38047,0.40528 0.0248,0.16543 0.23986,0.27295 0.488,0.21505 0.23986,-0.0579 0.40528,-0.21505 0.38047,-0.38047 -0.0248,-0.15715 -0.24813,-0.26468 -0.488,-0.23986 z M 20.73531,-1.9734273e-7 C 9.2632,-1.9734273e-7 0.48748,8.7095398 0.48748,20.18166 c 0,9.17273 5.77328,17.02207 14.01964,19.78464 1.05871,0.19024 1.43091,-0.46319 1.43091,-1.00081 0,-0.51282 -0.0248,-3.34156 -0.0248,-5.0785 0,0 -5.78982,1.24067 -7.00568,-2.46481 0,0 -0.94292,-2.40691 -2.29939,-3.02725 0,0 -1.8941,-1.29857 0.13234,-1.27376 0,0 2.05952,0.16542 3.19267,2.13396 1.81139,3.19267 4.84691,2.27457 6.02969,1.72868 0.19023,-1.32339 0.72786,-2.24149 1.32338,-2.78739 -4.62358,-0.51281 -9.28852,-1.18278 -9.28852,-9.13964 0,-2.27458 0.62861,-3.416 1.95199,-4.87172 -0.21505,-0.53763 -0.9181,-2.7543 0.21506,-5.6161302 1.72867,-0.53762 5.7071,2.2332202 5.7071,2.2332202 1.65424,-0.46319 3.43254,-0.70305 5.1943,-0.70305 1.76176,0 3.54006,0.23986 5.1943,0.70305 0,0 3.97843,-2.7791202 5.7071,-2.2332202 1.13315,2.8701002 0.4301,5.0785002 0.21505,5.6161302 1.32339,1.46399 2.13397,2.60542 2.13397,4.87172 0,7.98168 -4.87172,8.61856 -9.49531,9.13964 0.76095,0.65342 1.4061,1.8941 1.4061,3.83782 0,2.78739 -0.0248,6.23647 -0.0248,6.9147 0,0.53763 0.38047,1.19105 1.43091,1.00082 C 35.90466,37.20373 41.51252,29.35439 41.51252,20.18166 41.51252,8.7095398 32.20745,-1.9734273e-7 20.73533,-1.9734273e-7 Z M 8.52706,28.52727 c -0.10752,0.0827 -0.0827,0.27295 0.0579,0.4301 0.13234,0.13234 0.32258,0.19024 0.4301,0.0827 0.10753,-0.0827 0.0827,-0.27295 -0.0579,-0.4301 -0.13233,-0.13234 -0.32257,-0.19024 -0.4301,-0.0827 z M 7.63378,27.8573 c -0.0579,0.10753 0.0248,0.23987 0.19023,0.32258 0.13234,0.0827 0.29777,0.0579 0.35566,-0.0579 C 8.23757,28.01446 8.15487,27.88212 7.98944,27.7994 7.82401,27.7498 7.69168,27.7746 7.63378,27.8573 Z m 2.67986,2.94454 c -0.13234,0.10753 -0.0827,0.35566 0.10752,0.51281 0.19024,0.19024 0.4301,0.21505 0.53763,0.0827 0.10752,-0.10752 0.0579,-0.35566 -0.10753,-0.51281 -0.18196,-0.19024 -0.4301,-0.21505 -0.53762,-0.0827 z M 9.37072,29.58598 c -0.13234,0.0827 -0.13234,0.29776 0,0.488 0.13234,0.19023 0.35566,0.27295 0.46319,0.19023 0.13234,-0.10752 0.13234,-0.32257 0,-0.51281 -0.1158,-0.19024 -0.33085,-0.27295 -0.46319,-0.16542 z"
     id="path2"
     inkscape:connector-curvature="0"
     style="stroke-width:0.08271171" />
</svg>
