<?xml version="1.0" encoding="UTF-8" standalone="no"?>
<svg
   xmlns:dc="http://purl.org/dc/elements/1.1/"
   xmlns:cc="http://creativecommons.org/ns#"
   xmlns:rdf="http://www.w3.org/1999/02/22-rdf-syntax-ns#"
   xmlns:svg="http://www.w3.org/2000/svg"
   xmlns="http://www.w3.org/2000/svg"
   xmlns:sodipodi="http://sodipodi.sourceforge.net/DTD/sodipodi-0.dtd"
   xmlns:inkscape="http://www.inkscape.org/namespaces/inkscape"
   viewBox="0 0 37 40"
   version="1.1"
   id="svg4"
   sodipodi:docname="keybase.svg"
   width="37"
   height="40"
   inkscape:version="0.92.3 (2405546, 2018-03-11)">
  <metadata
     id="metadata10">
    <rdf:RDF>
      <cc:Work
         rdf:about="">
        <dc:format>image/svg+xml</dc:format>
        <dc:type
           rdf:resource="http://purl.org/dc/dcmitype/StillImage" />
        <dc:title></dc:title>
      </cc:Work>
    </rdf:RDF>
  </metadata>
  <defs
     id="defs8" />
  <sodipodi:namedview
     pagecolor="#ffffff"
     bordercolor="#666666"
     borderopacity="1"
     objecttolerance="10"
     gridtolerance="10"
     guidetolerance="10"
     inkscape:pageopacity="0"
     inkscape:pageshadow="2"
     inkscape:window-width="1600"
     inkscape:window-height="845"
     id="namedview6"
     showgrid="false"
     inkscape:zoom="0.4609375"
     inkscape:cx="-33.084746"
     inkscape:cy="256"
     inkscape:window-x="0"
     inkscape:window-y="27"
     inkscape:window-maximized="1"
     inkscape:current-layer="svg4" />
  <path
     d="m 15.915019,35.606195 a 1.5896405,1.5896405 0 1 1 -1.58964,-1.58964 1.5932128,1.5932128 0 0 1 1.58964,1.58964 z m 8.28667,-1.59857 a 1.5896405,1.5896405 0 1 0 1.58964,1.58964 1.5932128,1.5932128 0 0 0 -1.58964,-1.58964 z m 12.70819,-3.215 c 0,3.47399 -0.67872,6.59969 -1.98258,9.19848 h -2.43805 c 2.09869,-3.45613 2.72383,-8.46618 2.00045,-11.99375 -1.43782,2.63452 -4.65282,3.4472 -7.67136,2.572 -11.41326,-3.34896 -17.1913297,1.75932 -20.9510997,4.49208 l 1.68788,-5.29583 -3.5633,3.77763 a 15.477562,15.477562 0 0 0 2.78634,6.4568 h -2.57111 a 17.617325,17.617325 0 0 1 -1.98259,-4.58138 l -2.12546996,2.2505 c 0,-6.68899 -0.49118,-13.18151 5.49228996,-19.21857 a 18.814021,18.814021 0 0 1 6.1710297,-4.17058 c -0.60728,-1.20562 -0.84841,-2.60772 -0.69659,-4.10806 l -1.7780697,-0.10716 a 2.9185086,2.9185086 0 0 1 -2.73276,-3.07212 v -0.009 l 0.14289,-2.33981 a 2.92476,2.92476 0 0 1 2.90244,-2.73275 c 0.11609,0 -0.0268,-0.009 2.5184097,0.15182 a 2.8577808,2.8577808 0 0 1 2.03617,1.01808 c 0.63497,-0.92877 1.29494,-1.83076 2.19782,-3.08104 l 1.83969,1.0806 c -1.21455,2.58986 -0.81268,3.23286 -0.80375,3.24179 0.34829,0 1.24135,-0.0446 2.8935,0.50905 a 6.8041974,6.8041974 0 0 1 4.11699,9.13596 c 1.69681,0.54477 4.58138,1.77719 7.35879,4.62604 3.26859,3.35789 5.15294,7.80531 5.15294,12.19915 z M 11.520289,8.046475 a 14.499665,14.499665 0 0 1 1.1699,-2.62559 c 0.009,-0.17861 0.19647,-1.1699 -0.69658,-1.23242 C 9.4483993,4.027715 9.6448693,4.045585 9.6091493,4.045585 a 0.76534941,0.76534941 0 0 0 -0.76803,0.72337 l -0.14289,2.33981 a 0.77517303,0.77517303 0 0 0 0.72337,0.81268 z m 2.30408,5.51909 a 4.6706854,4.6706854 0 0 0 1.99152,1.78611 c 0,-1.89328 2.54521,-3.74191 4.71534,-1.56285 l 0.75016,0.91985 c 1.85756,-1.67895 1.73253,-4.04555 1.0806,-5.43871 -1.23242,-2.5988 -4.18843,-2.85778 -4.84929,-2.83099 a 2.1647689,2.1647689 0 0 1 -2.11655,-1.36638 c -1.22259,1.89328 -3.32127,5.5816 -1.57088,8.49297 z m 7.40344,6.1085 -1.75932,1.43783 a 0.39830319,0.39830319 0 0 0 -0.0536,0.56262 l 0.79482,0.97343 a 0.40008931,0.40008931 0 0 0 0.56262,0.0536 l 1.75039,-1.42889 0.49118,0.60727 c 0.4376,0.53584 1.23242,-0.12502 0.80375,-0.65193 -5.67983,-6.99263 -3.70618,-4.56352 -4.9386,-6.08171 -0.41973,-0.53584 -1.24135,0.12503 -0.80375,0.65193 0.16968,0.2054 1.64323,2.01831 1.76825,2.17013 l -0.85733,0.70551 c -0.41081,0.33936 0.23219,1.18777 0.66086,0.83947 l 0.86627,-0.71444 z m 10.57468,2.29516 c -1.50926,-2.11654 -3.80442,-4.17057 -6.55503,-5.39406 a 19.040857,19.040857 0 0 0 -2.0451,-0.76803 5.5789239,5.5789239 0 0 1 -0.57156,0.55369 l 2.84885,3.50079 a 2.6622014,2.6622014 0 0 1 -0.37508,3.7419 c -0.1161,0.0982 -1.1699,0.95557 -2.58986,0.4376 -0.25899,0.2054 -0.90199,0.88413 -1.98259,0.88413 a 2.5380665,2.5380665 0 0 1 -1.97365,-0.93771 l -0.79483,-0.97343 a 2.5469971,2.5469971 0 0 1 -0.44652,-2.3934 2.5505693,2.5505693 0 0 1 -0.41081,-2.67917 c -0.643,-0.11609 -2.38446,-0.55369 -3.81335,-1.91114 -4.9832597,1.84863 -7.8588997,5.75129 -9.0466597,8.14468 -1.33066,2.69703 -1.67895,5.43871 -1.77719,8.05537 0.73231,-0.77696 -0.34829,0.36615 10.1808497,-10.79705 l -2.6702397,8.359 c 5.1618697,-2.7774 11.0738997,-3.215 17.6289297,-1.286 2.10762,0.61621 4.02769,0.14289 5.00112,-1.24135 0.99129,-1.39316 0.7591,-3.36682 -0.60728,-5.29582 z M 9.9672593,6.706885 l 1.3931697,0.0893 0.0893,-1.39317 -1.39317,-0.0893 z"
     id="path2"
     inkscape:connector-curvature="0"
     style="stroke-width:0.08930565" />
</svg>
