<?xml version="1.0" encoding="UTF-8" standalone="no"?>
<svg
   viewBox="0 0 42 40"
   version="1.1"
   id="svg4"
   sodipodi:docname="keyoxide.svg"
   width="42"
   height="40"
   inkscape:version="1.2.1 (9c6d41e410, 2022-07-14)"
   xmlns:inkscape="http://www.inkscape.org/namespaces/inkscape"
   xmlns:sodipodi="http://sodipodi.sourceforge.net/DTD/sodipodi-0.dtd"
   xmlns="http://www.w3.org/2000/svg"
   xmlns:svg="http://www.w3.org/2000/svg"
   xmlns:rdf="http://www.w3.org/1999/02/22-rdf-syntax-ns#"
   xmlns:cc="http://creativecommons.org/ns#"
   xmlns:dc="http://purl.org/dc/elements/1.1/">
  <metadata
     id="metadata10">
    <rdf:RDF>
      <cc:Work
         rdf:about="">
        <dc:format>image/svg+xml</dc:format>
        <dc:type
           rdf:resource="http://purl.org/dc/dcmitype/StillImage" />
        <dc:title />
      </cc:Work>
    </rdf:RDF>
  </metadata>
  <defs
     id="defs8" />
  <sodipodi:namedview
     pagecolor="#ffffff"
     bordercolor="#666666"
     borderopacity="1"
     objecttolerance="10"
     gridtolerance="10"
     guidetolerance="10"
     inkscape:pageopacity="0"
     inkscape:pageshadow="2"
     inkscape:window-width="1200"
     inkscape:window-height="1883"
     id="namedview6"
     showgrid="false"
     inkscape:zoom="12.459925"
     inkscape:cx="17.255321"
     inkscape:cy="36.196045"
     inkscape:window-x="1600"
     inkscape:window-y="0"
     inkscape:window-maximized="1"
     inkscape:current-layer="svg4"
     inkscape:showpageshadow="2"
     inkscape:pagecheckerboard="0"
     inkscape:deskcolor="#d1d1d1" />
  <path
     id="rect840"
     style="stroke-width:0.08271171"
     d="M 21 0.10546875 C 9.9789902 0.10546875 1.1054687 8.9789902 1.1054688 20 C 1.1054688 31.02101 9.9789902 39.894531 21 39.894531 C 32.02101 39.894531 40.894531 31.02101 40.894531 20 C 40.894531 8.9789902 32.02101 0.10546875 21 0.10546875 z M 19.585938 3.5292969 A 0.60166609 0.60166609 0 0 1 20.1875 4.1308594 A 0.60166609 0.60166609 0 0 1 19.585938 4.7324219 A 0.60166609 0.60166609 0 0 1 18.984375 4.1308594 A 0.60166609 0.60166609 0 0 1 19.585938 3.5292969 z M 21.931641 3.9023438 A 0.8617211 0.8617211 0 0 1 22.792969 4.7636719 A 0.8617211 0.8617211 0 0 1 21.931641 5.625 A 0.8617211 0.8617211 0 0 1 21.070312 4.7636719 A 0.8617211 0.8617211 0 0 1 21.931641 3.9023438 z M 20.671875 6.0039062 A 1.3207902 1.3207902 0 0 1 21.992188 7.3242188 A 1.3207902 1.3207902 0 0 1 20.671875 8.6464844 A 1.3207902 1.3207902 0 0 1 19.349609 7.3242188 A 1.3207902 1.3207902 0 0 1 20.671875 6.0039062 z M 24.224609 6.9433594 C 24.241216 6.9429388 24.258682 6.9433595 24.275391 6.9433594 C 25.344744 6.9433286 26.212891 7.8095436 26.212891 8.8789062 C 26.212891 9.0755886 26.178348 9.2001474 26.242188 9.3085938 C 26.306126 9.41703 26.418164 9.4308075 26.566406 9.4296875 C 26.717527 9.4285255 26.869541 9.435998 27.019531 9.453125 C 27.109895 9.4634361 27.199835 9.5094117 27.234375 9.5820312 C 27.268915 9.6546513 27.250103 9.7231423 27.25 9.8398438 C 27.25 10.699838 27.946693 11.398437 28.806641 11.398438 C 28.99456 11.398438 29.179573 11.364108 29.353516 11.298828 C 29.480062 11.251378 29.582541 11.195001 29.708984 11.244141 C 29.835538 11.293281 29.853307 11.335313 29.914062 11.453125 C 30.727851 13.031246 30.317831 14.994378 28.886719 16.107422 L 21.783203 21.634766 L 28.664062 26.220703 C 30.376969 27.362639 30.841155 29.68163 29.699219 31.394531 C 28.557284 33.107437 26.238292 33.571617 24.525391 32.429688 L 19.138672 28.837891 L 19.138672 29.324219 C 19.138672 31.385823 17.465798 33.058594 15.404297 33.058594 C 13.342797 33.058594 11.671875 31.385823 11.671875 29.324219 L 11.671875 21.865234 C 11.671877 21.842883 11.67538 21.821129 11.675781 21.798828 L 11.675781 13.162109 C 11.675781 11.10344 13.345628 9.4316406 15.404297 9.4316406 C 17.462966 9.4316406 19.134766 11.10344 19.134766 13.162109 L 19.134766 14.234375 L 23.226562 11.052734 C 23.226563 11.052734 23.445521 10.904098 23.425781 10.744141 C 23.406145 10.584077 23.321556 10.572993 23.173828 10.470703 C 22.661051 10.115334 22.339844 9.5251852 22.339844 8.8789062 C 22.339844 7.8262827 23.178374 6.9698556 24.224609 6.9433594 z M 28.806641 8.7851562 A 1.0556064 1.0556064 0 0 1 29.861328 9.8398438 A 1.0556064 1.0556064 0 0 1 28.806641 10.896484 A 1.0556064 1.0556064 0 0 1 27.75 9.8398438 A 1.0556064 1.0556064 0 0 1 28.806641 8.7851562 z " />
</svg>
