<?xml version="1.0" encoding="UTF-8" standalone="no"?>
<svg
   xmlns:dc="http://purl.org/dc/elements/1.1/"
   xmlns:cc="http://creativecommons.org/ns#"
   xmlns:rdf="http://www.w3.org/1999/02/22-rdf-syntax-ns#"
   xmlns:svg="http://www.w3.org/2000/svg"
   xmlns="http://www.w3.org/2000/svg"
   xmlns:sodipodi="http://sodipodi.sourceforge.net/DTD/sodipodi-0.dtd"
   xmlns:inkscape="http://www.inkscape.org/namespaces/inkscape"
   viewBox="0 0 41 40"
   version="1.1"
   id="svg4"
   sodipodi:docname="linkedin.svg"
   width="41"
   height="40"
   inkscape:version="0.92.3 (2405546, 2018-03-11)">
  <metadata
     id="metadata10">
    <rdf:RDF>
      <cc:Work
         rdf:about="">
        <dc:format>image/svg+xml</dc:format>
        <dc:type
           rdf:resource="http://purl.org/dc/dcmitype/StillImage" />
        <dc:title></dc:title>
      </cc:Work>
    </rdf:RDF>
  </metadata>
  <defs
     id="defs8" />
  <sodipodi:namedview
     pagecolor="#ffffff"
     bordercolor="#666666"
     borderopacity="1"
     objecttolerance="10"
     gridtolerance="10"
     guidetolerance="10"
     inkscape:pageopacity="0"
     inkscape:pageshadow="2"
     inkscape:window-width="1600"
     inkscape:window-height="845"
     id="namedview6"
     showgrid="false"
     inkscape:zoom="0.4609375"
     inkscape:cx="-33.084746"
     inkscape:cy="256"
     inkscape:window-x="0"
     inkscape:window-y="27"
     inkscape:window-maximized="1"
     inkscape:current-layer="svg4" />
  <path
     d="M 9.45332,40 H 1.16028 V 13.29405 H 9.45332 Z M 5.30234,9.65111 c -2.65185,0 -4.80279,-2.19648 -4.80279,-4.84832 a 4.80279,4.80279 0 0 1 9.60558,0 c 0,2.65184 -2.15184,4.84832 -4.80279,4.84832 z M 40.49152,40 H 32.21633 V 26.99971 c 0,-3.09828 -0.0625,-7.07159 -4.3117,-7.07159 -4.3117,0 -4.97243,3.36615 -4.97243,6.84837 V 40 H 14.64808 V 13.29405 h 7.95375 v 3.64294 h 0.11608 c 1.10716,-2.09827 3.81169,-4.3126 7.8466,-4.3126 8.39304,0 9.93594,5.52691 9.93594,12.70564 V 40 Z"
     id="path2"
     inkscape:connector-curvature="0"
     style="stroke-width:0.08928771" />
</svg>
