<?xml version="1.0" encoding="UTF-8" standalone="no"?>
<svg
   viewBox="0 0 38 40"
   version="1.1"
   id="svg4"
   sodipodi:docname="mastodon.svg"
   width="38"
   height="40"
   inkscape:version="1.1 (c68e22c387, 2021-05-23)"
   xmlns:inkscape="http://www.inkscape.org/namespaces/inkscape"
   xmlns:sodipodi="http://sodipodi.sourceforge.net/DTD/sodipodi-0.dtd"
   xmlns="http://www.w3.org/2000/svg"
   xmlns:svg="http://www.w3.org/2000/svg"
   xmlns:rdf="http://www.w3.org/1999/02/22-rdf-syntax-ns#"
   xmlns:cc="http://creativecommons.org/ns#"
   xmlns:dc="http://purl.org/dc/elements/1.1/">
  <metadata
     id="metadata10">
    <rdf:RDF>
      <cc:Work
         rdf:about="">
        <dc:format>image/svg+xml</dc:format>
        <dc:type
           rdf:resource="http://purl.org/dc/dcmitype/StillImage" />
      </cc:Work>
    </rdf:RDF>
  </metadata>
  <defs
     id="defs8" />
  <sodipodi:namedview
     pagecolor="#ffffff"
     bordercolor="#666666"
     borderopacity="1"
     objecttolerance="10"
     gridtolerance="10"
     guidetolerance="10"
     inkscape:pageopacity="0"
     inkscape:pageshadow="2"
     inkscape:window-width="1600"
     inkscape:window-height="836"
     id="namedview6"
     showgrid="false"
     inkscape:zoom="7.7137585"
     inkscape:cx="36.687692"
     inkscape:cy="19.510593"
     inkscape:window-x="0"
     inkscape:window-y="27"
     inkscape:window-maximized="1"
     inkscape:current-layer="svg4"
     inkscape:pagecheckerboard="0" />
  <path
     d="m 37.462576,13.20425 c 0,-8.5870933 -5.628434,-11.1049135 -5.628434,-11.1049135 -5.523303,-2.53549024 -20.192039,-2.50898693 -25.6623352,0 0,0 -5.62931719,2.5178202 -5.62931719,11.1049135 0,10.221469 -0.58307447,22.916586 9.33183819,25.54042 3.5788392,0.945287 6.6541142,1.14848 9.1286462,1.007128 4.488789,-0.247365 7.007493,-1.599037 7.007493,-1.599037 l -0.150186,-3.259915 c 0,0 -3.207792,1.007128 -6.813135,0.892281 -3.570004,-0.123683 -7.3326,-0.388717 -7.918325,-4.770608 a 9.0588541,9.0588541 0 0 1 -0.07951,-1.22799 c 7.564947,1.846402 14.015869,0.803936 15.791595,0.591909 4.957898,-0.591909 9.276181,-3.648632 9.826568,-6.440321 0.865777,-4.39956 0.795102,-10.733867 0.795102,-10.733867 z M 30.82613,24.264992 H 26.706622 V 14.176041 c 0,-4.3907262 -5.654054,-4.558581 -5.654054,0.609577 v 5.521537 h -4.093004 v -5.52242 c 0,-5.1681585 -5.654054,-5.0003036 -5.654054,-0.609577 V 24.264109 H 7.1771681 c 0,-10.786874 -0.459392,-13.066164 1.6264233,-15.4603025 2.2881256,-2.5531582 7.0516656,-2.721013 9.1728186,0.538902 l 1.024797,1.7227195 1.024797,-1.7227195 c 2.129988,-3.2775841 6.90148,-3.0743911 9.172819,-0.538902 2.09465,2.4118075 1.62554,4.6822625 1.62554,15.4603025 z"
     id="path2"
     inkscape:connector-curvature="0"
     style="stroke-width:0.00849798" />
</svg>
