<?xml version="1.0" encoding="UTF-8" standalone="no"?>
<svg
   xmlns:dc="http://purl.org/dc/elements/1.1/"
   xmlns:cc="http://creativecommons.org/ns#"
   xmlns:rdf="http://www.w3.org/1999/02/22-rdf-syntax-ns#"
   xmlns:svg="http://www.w3.org/2000/svg"
   xmlns="http://www.w3.org/2000/svg"
   xmlns:sodipodi="http://sodipodi.sourceforge.net/DTD/sodipodi-0.dtd"
   xmlns:inkscape="http://www.inkscape.org/namespaces/inkscape"
   viewBox="0 0 40 40"
   version="1.1"
   id="svg4"
   sodipodi:docname="rss.svg"
   width="40"
   height="40"
   inkscape:version="0.92.3 (2405546, 2018-03-11)">
  <metadata
     id="metadata10">
    <rdf:RDF>
      <cc:Work
         rdf:about="">
        <dc:format>image/svg+xml</dc:format>
        <dc:type
           rdf:resource="http://purl.org/dc/dcmitype/StillImage" />
        <dc:title></dc:title>
      </cc:Work>
    </rdf:RDF>
  </metadata>
  <defs
     id="defs8" />
  <sodipodi:namedview
     pagecolor="#ffffff"
     bordercolor="#666666"
     borderopacity="1"
     objecttolerance="10"
     gridtolerance="10"
     guidetolerance="10"
     inkscape:pageopacity="0"
     inkscape:pageshadow="2"
     inkscape:window-width="1600"
     inkscape:window-height="845"
     id="namedview6"
     showgrid="false"
     inkscape:zoom="0.4609375"
     inkscape:cx="-33.084746"
     inkscape:cy="256"
     inkscape:window-x="0"
     inkscape:window-y="27"
     inkscape:window-maximized="1"
     inkscape:current-layer="svg4" />
  <path
     d="m 11.435816,34.282008 c 0,3.15793 -2.5599899,5.71793 -5.7179299,5.71793 -3.15794,0 -5.717840022654,-2.56 -5.717840022654,-5.71793 0,-3.15794 2.559990022654,-5.71793 5.717930022654,-5.71793 3.15794,0 5.7178399,2.56008 5.7178399,5.71793 z m 15.68388,4.21873 C 26.373806,24.697208 15.317496,13.626978 1.4992361,12.880288 0.68361608,12.836188 4.6077346e-5,13.491538 4.6077346e-5,14.308318 v 4.29186 c 0,0.75134 0.579460002654,1.38142 1.329190022654,1.43017 9.9849699,0.65036 17.9886099,8.63408 18.6402999,18.6403 0.0488,0.74973 0.67893,1.3292 1.43018,1.3292 h 4.29186 c 0.81687,9e-5 1.47223,-0.68348 1.42812,-1.49911 z m 12.87933,0.0257 C 39.249566,17.649718 22.452206,0.754048 1.4735261,9.2799867e-4 0.66727608,-0.027972 4.6077346e-5,0.623338 4.6077346e-5,1.430038 v 4.29177 c 0,0.77008 0.610270002654,1.39687 1.379730022654,1.42848 17.0694999,0.6999 30.7701699,14.40316 31.4699899,31.46999 0.0315,0.76946 0.6583,1.37972 1.42848,1.37972 h 4.29177 c 0.8066,-8e-5 1.45794,-0.66731 1.42901,-1.47356 z"
     id="path2"
     inkscape:connector-curvature="0"
     style="stroke-width:0.08928544" />
</svg>
