<?xml version="1.0" encoding="UTF-8" standalone="no"?>
<svg
   xmlns:dc="http://purl.org/dc/elements/1.1/"
   xmlns:cc="http://creativecommons.org/ns#"
   xmlns:rdf="http://www.w3.org/1999/02/22-rdf-syntax-ns#"
   xmlns:svg="http://www.w3.org/2000/svg"
   xmlns="http://www.w3.org/2000/svg"
   xmlns:sodipodi="http://sodipodi.sourceforge.net/DTD/sodipodi-0.dtd"
   xmlns:inkscape="http://www.inkscape.org/namespaces/inkscape"
   viewBox="0 0 50 40"
   version="1.1"
   id="svg4"
   sodipodi:docname="twitter.svg"
   width="50"
   height="40"
   inkscape:version="0.92.3 (2405546, 2018-03-11)">
  <metadata
     id="metadata10">
    <rdf:RDF>
      <cc:Work
         rdf:about="">
        <dc:format>image/svg+xml</dc:format>
        <dc:type
           rdf:resource="http://purl.org/dc/dcmitype/StillImage" />
        <dc:title></dc:title>
      </cc:Work>
    </rdf:RDF>
  </metadata>
  <defs
     id="defs8" />
  <sodipodi:namedview
     pagecolor="#ffffff"
     bordercolor="#666666"
     borderopacity="1"
     objecttolerance="10"
     gridtolerance="10"
     guidetolerance="10"
     inkscape:pageopacity="0"
     inkscape:pageshadow="2"
     inkscape:window-width="1600"
     inkscape:window-height="845"
     id="namedview6"
     showgrid="false"
     inkscape:zoom="0.4609375"
     inkscape:cx="-1.0847458"
     inkscape:cy="256"
     inkscape:window-x="0"
     inkscape:window-y="27"
     inkscape:window-maximized="1"
     inkscape:current-layer="svg4" />
  <path
     d="m 44.56253,9.96871 c 0.0313,0.43748 0.0313,0.87506 0.0313,1.31254 C 44.59383,24.62494 34.43764,40 15.87508,40 10.1563,40 4.84383,38.34368 0.37506,35.4688 c 0.81253,0.0937 1.5937,0.12495 2.4375,0.12495 4.71867,0 9.06249,-1.5937 12.53125,-4.31245 -4.43751,-0.0938 -8.15627,-3.00003 -9.43754,-7.00006 0.62505,0.0937 1.25001,0.15622 1.90632,0.15622 0.90622,0 1.81254,-0.12505 2.65624,-0.34369 C 5.84384,23.15619 2.37498,19.09373 2.37498,14.18748 v -0.12495 c 1.3437,0.75 2.90633,1.21875 4.56246,1.28117 -2.71876,-1.81253 -4.49993,-4.90624 -4.49993,-8.40627 0,-1.87497 0.4999,-3.59372 1.37496,-5.09373 4.96877,6.125 12.43756,10.12493 20.81248,10.56251 -0.15622,-0.75001 -0.25,-1.53118 -0.25,-2.31245 C 24.37495,4.5312 28.87498,0 34.46871,0 c 2.90623,0 5.53121,1.21875 7.37501,3.1875 2.28118,-0.43748 4.46867,-1.28127 6.40626,-2.43749 -0.75011,2.3438 -2.34381,4.31255 -4.43751,5.56246 2.03127,-0.21864 4.00003,-0.78126 5.81247,-1.56244 -1.37477,1.99992 -3.09362,3.7811 -5.06237,5.21868 z"
     id="path2"
     inkscape:connector-curvature="0"
     style="stroke-width:0.09619153" />
</svg>
