<?xml version="1.0" encoding="UTF-8" standalone="no"?>
<svg
   xmlns:dc="http://purl.org/dc/elements/1.1/"
   xmlns:cc="http://creativecommons.org/ns#"
   xmlns:rdf="http://www.w3.org/1999/02/22-rdf-syntax-ns#"
   xmlns:svg="http://www.w3.org/2000/svg"
   xmlns="http://www.w3.org/2000/svg"
   xmlns:sodipodi="http://sodipodi.sourceforge.net/DTD/sodipodi-0.dtd"
   xmlns:inkscape="http://www.inkscape.org/namespaces/inkscape"
   viewBox="0 0 40 40"
   version="1.1"
   id="svg4"
   sodipodi:docname="website.svg"
   width="40"
   height="40"
   inkscape:version="0.92.3 (2405546, 2018-03-11)">
  <metadata
     id="metadata10">
    <rdf:RDF>
      <cc:Work
         rdf:about="">
        <dc:format>image/svg+xml</dc:format>
        <dc:type
           rdf:resource="http://purl.org/dc/dcmitype/StillImage" />
        <dc:title></dc:title>
      </cc:Work>
    </rdf:RDF>
  </metadata>
  <defs
     id="defs8" />
  <sodipodi:namedview
     pagecolor="#ffffff"
     bordercolor="#666666"
     borderopacity="1"
     objecttolerance="10"
     gridtolerance="10"
     guidetolerance="10"
     inkscape:pageopacity="0"
     inkscape:pageshadow="2"
     inkscape:window-width="1600"
     inkscape:window-height="845"
     id="namedview6"
     showgrid="false"
     inkscape:zoom="0.4609375"
     inkscape:cx="-9.0847458"
     inkscape:cy="256"
     inkscape:window-x="0"
     inkscape:window-y="27"
     inkscape:window-maximized="1"
     inkscape:current-layer="svg4" />
  <path
     d="M 20,0 C 8.95403,0 0,8.95403 0,20 0,31.04597 8.95403,40 20,40 31.04597,40 40,31.04597 40,20 40,8.95403 31.04597,0 20,0 Z m 6.63629,28.83871 c -0.31452,0.3129 -0.64435,0.64113 -0.9121,0.90968 -0.24113,0.24193 -0.41129,0.54032 -0.49758,0.86371 -0.12177,0.45645 -0.22016,0.91774 -0.38467,1.36048 l -1.40242,3.77823 C 22.32984,35.99274 21.18145,36.12903 20,36.12903 v -2.20806 c 0.13629,-1.01774 -0.61613,-2.9242 -1.825,-4.13307 -0.48387,-0.48387 -0.75565,-1.14032 -0.75565,-1.825 v -2.58145 c 0,-0.93871 -0.50564,-1.80161 -1.32741,-2.25564 -1.15888,-0.64113 -2.80726,-1.5371 -3.93629,-2.10565 -0.92581,-0.46613 -1.78226,-1.05968 -2.55242,-1.75403 l -0.0645,-0.0581 A 9.2574194,9.2574194 0 0 1 8.08228,17.53545 C 7.32583,16.42497 6.09357,14.59836 5.29276,13.41126 6.94357,9.74191 9.91857,6.79513 13.61534,5.19432 l 1.93629,0.96855 C 16.4097,6.59191 17.41937,5.96852 17.41937,5.00884 V 4.09755 c 0.64436,-0.10403 1.3,-0.17016 1.96694,-0.19516 l 2.28226,2.28226 c 0.50403,0.50403 0.50403,1.32097 0,1.825 l -0.37823,0.37742 -0.83387,0.83387 c -0.25161,0.25161 -0.25161,0.66048 0,0.91209 l 0.37823,0.37823 c 0.25161,0.25161 0.25161,0.66048 0,0.9121 l -0.64516,0.64516 a 0.64580645,0.64580645 0 0 1 -0.45646,0.18871 h -0.725 c -0.16774,0 -0.32903,0.0653 -0.45,0.18306 l -0.8,0.77823 a 0.64580645,0.64580645 0 0 0 -0.12741,0.7508 l 1.25725,2.51533 c 0.21452,0.42903 -0.0976,0.93387 -0.57661,0.93387 h -0.45484 c -0.15564,0 -0.30564,-0.0565 -0.42258,-0.15807 l -0.74839,-0.65 a 1.2916935,1.2916935 0 0 0 -1.25403,-0.25 l -2.51371,0.83791 a 0.96370968,0.96370968 0 0 0 -0.65887,0.91451 c 0,0.36533 0.20645,0.69839 0.53307,0.8621 l 0.89354,0.44677 c 0.75887,0.37984 1.59597,0.57742 2.44436,0.57742 0.84839,0 1.82177,2.20081 2.58064,2.58065 h 5.38307 c 0.68468,0 1.34032,0.27177 1.825,0.75564 l 1.10403,1.10404 a 2.4599194,2.4599194 0 0 1 0.72016,1.73951 3.7529032,3.7529032 0 0 1 -1.10645,2.65968 z m 6.99274,-7.36694 C 33.1621,21.35484 32.75484,21.06855 32.4879,20.66774 l -1.45,-2.175 a 1.9330645,1.9330645 0 0 1 0,-2.14677 l 1.57984,-2.36936 c 0.1871,-0.27984 0.44355,-0.50726 0.74516,-0.65726 l 1.04678,-0.52338 C 35.5,14.96694 36.12903,17.40887 36.12903,20 c 0,0.69919 -0.0597,1.38387 -0.14677,2.05968 z"
     id="path2"
     inkscape:connector-curvature="0"
     style="stroke-width:0.08064516" />
</svg>
